<?xml version="1.0" encoding="UTF-8"?>
<svg id="Layer_2" data-name="Layer 2" xmlns="http://www.w3.org/2000/svg" viewBox="0 0 1215.54 234">
  <defs>
    <style>
      .cls-1, .cls-2 {
        fill: #ff700d;
      }

      .cls-2, .cls-3, .cls-4, .cls-5, .cls-6 {
        fill-rule: evenodd;
      }

      .cls-3 {
        fill: #ffa721;
      }

      .cls-7 {
        fill: #58535a;
      }

      .cls-8 {
        fill: #1aa1ff;
      }

      .cls-4 {
        fill: #333;
      }

      .cls-9 {
        fill: #f99417;
      }

      .cls-10 {
        fill: #ff3131;
      }

      .cls-5 {
        fill: #ccc;
      }
    </style>
  </defs>
  <g id="Layer_1-2" data-name="Layer 1">
    <path d="m836.39,232c-14.07,0-25.47-11.48-25.47-25.64v-72.21c-12.61-1.53-22.38-12.35-22.38-25.46v-30.05c0-14.16,11.4-25.64,25.47-25.64h74.62c14.07,0,25.47,11.48,25.47,25.64v30.05c0,13.11-9.77,23.92-22.38,25.46v72.21c0,14.16-11.4,25.64-25.47,25.64h-29.85Z"/>
    <path d="m900.56,232c-14.07,0-25.47-11.48-25.47-25.64v-127.71c0-14.16,11.4-25.64,25.47-25.64h29.85c14.07,0,25.47,11.48,25.47,25.64v127.71c0,14.16-11.4,25.64-25.47,25.64h-29.85Z"/>
    <path d="m987.11,232c-2.6,0-5.1-.39-7.46-1.12-2.36.73-4.86,1.12-7.46,1.12h-29.85c-14.07,0-25.47-11.48-25.47-25.64v-127.71c0-14.16,11.4-25.64,25.47-25.64h29.85c2.6,0,5.1.39,7.46,1.12,2.36-.73,4.86-1.12,7.46-1.12h29.85c14.07,0,25.47,11.48,25.47,25.64v45.08c0,2.57-.38,5.09-1.11,7.5.72,2.38,1.11,4.91,1.11,7.52v67.61c0,14.16-11.4,25.64-25.47,25.64h-29.85Z"/>
    <path d="m1028.9,232c-14.07,0-25.47-11.48-25.47-25.64v-127.71c0-14.16,11.4-25.64,25.47-25.64h74.62c14.07,0,25.47,11.48,25.47,25.64v30.05c0,10.38-6.12,19.31-14.92,23.35v20.92c8.8,4.04,14.92,12.97,14.92,23.35v30.05c0,14.16-11.4,25.64-25.47,25.64h-74.62Z"/>
    <path d="m1137.84,232c-14.07,0-25.47-11.48-25.47-25.64v-72.21c-12.61-1.53-22.38-12.35-22.38-25.46v-30.05c0-14.16,11.4-25.64,25.47-25.64h74.62c14.07,0,25.47,11.48,25.47,25.64v30.05c0,13.11-9.77,23.92-22.38,25.46v72.21c0,14.16-11.4,25.64-25.47,25.64h-29.85Z"/>
    <path class="cls-8" d="m888.62,78.64v30.05h-22.38v97.66h-29.85v-97.66h-22.38v-30.05h74.62Z"/>
    <path class="cls-8" d="m930.41,78.64v127.71h-29.85v-127.71h29.85Z"/>
    <path class="cls-8" d="m972.19,78.64v47.78l14.92-15.03v-32.75h29.85v45.08l-14.92,15.03h14.92v67.61h-29.85v-52.59l-14.92,15.03v37.56h-29.85v-127.71h29.85Z"/>
    <path class="cls-8" d="m1058.74,108.69v22.54h29.85v30.05h-29.85v15.03h44.77v30.05h-74.62v-127.71h74.62v30.05h-44.77Z"/>
    <path class="cls-8" d="m1190.07,78.64v30.05h-22.38v97.66h-29.85v-97.66h-22.38v-30.05h74.62Z"/>
    <path d="m21.08,233.66c-11.64,0-21.08-9.72-21.08-21.72V76.72c0-12,9.44-21.72,21.08-21.72h30.88c2.73,0,5.33.53,7.72,1.5,2.39-.97,5-1.5,7.72-1.5h30.88c2.73,0,5.33.53,7.72,1.5,2.39-.97,5-1.5,7.72-1.5h30.88c11.64,0,21.08,9.72,21.08,21.72v135.22c0,12-9.44,21.72-21.08,21.72H21.08Z"/>
    <path d="m203.3,233.66c-2.73,0-5.33-.53-7.72-1.5-2.39.97-5,1.5-7.72,1.5h-30.88c-11.64,0-21.08-9.72-21.08-21.72V76.72c0-12,9.44-21.72,21.08-21.72h61.77c5.59,0,10.95,2.29,14.91,6.36l15.44,15.91c3.95,4.07,6.17,9.6,6.17,15.36v119.31c0,12-9.44,21.72-21.08,21.72h-30.88Z"/>
    <path d="m292.87,233.66c-2.73,0-5.33-.53-7.72-1.5-2.39.97-5,1.5-7.72,1.5h-30.88c-11.64,0-21.08-9.72-21.08-21.72V76.72c0-12,9.44-21.72,21.08-21.72h77.21c11.64,0,21.08,9.72,21.08,21.72v63.63c0,2.75-.5,5.44-1.46,7.95.94,2.46,1.46,5.15,1.46,7.96v55.68c0,12-9.44,21.72-21.08,21.72h-30.88Z"/>
    <path d="m336.11,233.66c-11.64,0-21.08-9.72-21.08-21.72V76.72c0-12,9.44-21.72,21.08-21.72h30.88c2.73,0,5.33.53,7.72,1.5,2.39-.97,5-1.5,7.72-1.5h30.88c11.64,0,21.08,9.72,21.08,21.72v135.22c0,12-9.44,21.72-21.08,21.72h-77.21Z"/>
    <path d="m472,233.66c-2.73,0-5.33-.53-7.72-1.5-2.39.97-5,1.5-7.72,1.5h-30.88c-11.64,0-21.08-9.72-21.08-21.72V76.72c0-12,9.44-21.72,21.08-21.72h61.77c5.59,0,10.95,2.29,14.91,6.36l15.44,15.91c3.95,4.07,6.17,9.6,6.17,15.36v119.31c0,12-9.44,21.72-21.08,21.72h-30.88Z"/>
    <path d="m515.24,233.66c-11.64,0-21.08-9.72-21.08-21.72v-119.31c0-5.76,2.22-11.29,6.17-15.36l15.44-15.91c3.95-4.07,9.32-6.36,14.91-6.36l283.85-2c11.64,0-16,10-9,17.72v31.82c-36.47,11.89,70.69,27.34,5,31.46,48.64-19.77-6.77-9.92,8,18.35v71.59c-203.82-3.73,41.5-4.15,26,8.06l-329.3,1.66Z"/>
    <path class="cls-6" d="m612.89,195.06v-53.44c0-4.88,2.84-9.23,7.06-10.82l39.77-14.93v-15.5h-24.14c-5.77,0-10.45-5.12-10.45-11.44V11.44c0-6.31,4.68-11.44,10.45-11.44h131.47c1.81,0,3.59.52,5.17,1.5l21.44,13.35c3.27,2.03,5.28,5.83,5.28,9.94v50.8c0,4.11-2.02,7.91-5.28,9.94l-21.44,13.35c-1.58.98-3.36,1.5-5.17,1.5h-2.7v29.82h37.09c5.77,0,10.45,5.12,10.45,11.44v53.63c4.41,1.34,7.64,5.77,7.64,11.02v16.3c0,6.31-4.68,11.44-10.45,11.44h-194.1c-5.77,0-10.45-5.12-10.45-11.44v-16.3c0-5.53,3.59-10.14,8.35-11.2h0Zm67.74-87.04l20.39-7.66h-20.39v7.66h0Zm49.64-7.66c.59,1.42.92,3,.92,4.69v25.13h12.26v-29.82h-13.18Zm-19.98,47.36v-26.66c-22.84,8.58-45.69,17.15-68.53,25.73h23.15c2.76,0,5.27,1.17,7.14,3.09,1.87-1.92,4.38-3.09,7.14-3.09h26.97c1.47,0,2.86.33,4.13.93h0Zm20.9,5.33v1.47c.48-.55,1.01-1.04,1.59-1.47h-1.59Zm58.22,0c.57.43,1.11.93,1.59,1.48v-1.48h-1.59Zm-41.66-102.91v-27.27h-35.76c.13.72.2,1.47.2,2.24v22.79c0,.77-.07,1.52-.2,2.24h35.76Zm1.41,144.68h1.48v-20.92h-1.48v20.92h0Zm22.38,0h1.48v-20.92h-1.48v20.92Z"/>
    <path class="cls-4" d="m620.69,203.36v-61.74c0-1.24.72-2.35,1.79-2.75l45.04-16.91v-30.12h-31.94c-1.47,0-2.66-1.3-2.66-2.91V11.44c0-1.6,1.19-2.91,2.66-2.91h131.47c.46,0,.91.13,1.31.38l21.44,13.35c.83.52,1.34,1.48,1.34,2.53v50.8c0,1.04-.51,2.01-1.34,2.53l-21.44,13.35c-.4.25-.85.38-1.31.38h-10.5v46.88h44.89c1.47,0,2.66,1.3,2.66,2.91v61.74h4.99c1.47,0,2.66,1.3,2.66,2.91v16.3c0,1.61-1.19,2.91-2.66,2.91h-194.1c-1.47,0-2.66-1.3-2.66-2.91v-16.3c0-1.6,1.19-2.91,2.66-2.91h5.7Zm52.15-83.39l47.04-17.66c1.72-.65,3.52.76,3.52,2.75v33.66h27.85v-46.88h-78.41v28.13h0Zm-46.83,23.73v59.66h92.08v-94.23c-30.69,11.52-61.39,23.05-92.08,34.57h0Zm97.39.83v58.83h12.66v-40.89c0-1.61,1.19-2.91,2.66-2.91h44.76c1.47,0,2.66,1.3,2.66,2.91v40.89h12.66v-58.83h-75.4Zm-72.5-58.5h104.64V14.34s-104.64,0-104.64,0v71.68h0Zm50.84-35.21c1.47,0,2.66-1.3,2.66-2.91v-22.79c0-1.6-1.19-2.91-2.66-2.91h-43c-1.47,0-2.66,1.3-2.66,2.91v22.79c0,1.6,1.19,2.91,2.66,2.91h43Zm-40.35-5.81h37.69v-16.98h-37.69v16.98h0Zm86.31,19.49c1.47,0,2.66-1.3,2.66-2.91s-1.19-2.91-2.66-2.91h-88.97c-1.47,0-2.66,1.3-2.66,2.91s1.19,2.91,2.66,2.91h88.97Zm0,13.68c1.47,0,2.66-1.3,2.66-2.91s-1.19-2.91-2.66-2.91h-88.97c-1.47,0-2.66,1.3-2.66,2.91s1.19,2.91,2.66,2.91h88.97Zm25.64-7.28c1.47,0,2.66-1.3,2.66-2.91v-35.58c0-1.6-1.19-2.91-2.66-2.91s-2.66,1.3-2.66,2.91v35.58c0,1.6,1.19,2.91,2.66,2.91h0Zm-7,15.14l19.49-12.13V26.47l-19.49-12.13h-5.49v71.68h5.49Zm-128.11,0h7.34V14.34h-7.34v71.68h0Zm103.12,117.33h17.07v-37.98h-17.07v37.98h0Zm22.38,0h17.07v-37.98h-17.07v37.98h0Zm-112.33-9.3h13.49c1.47,0,2.66-1.3,2.66-2.91v-32.92c0-1.6-1.19-2.91-2.66-2.91h-26.97c-1.47,0-2.66,1.3-2.66,2.91v32.92c0,1.6,1.19,2.91,2.66,2.91h13.49Zm2.66-32.92v27.11h8.17v-27.11h-8.17Zm-13.49,27.11h8.17v-27.11h-8.17v27.11h0Zm52.08,5.81h13.49c1.47,0,2.66-1.3,2.66-2.91v-32.92c0-1.6-1.19-2.91-2.66-2.91h-26.97c-1.47,0-2.66,1.3-2.66,2.91v32.92c0,1.6,1.19,2.91,2.66,2.91h13.49Zm2.66-32.92v27.11h8.17v-27.11h-8.17Zm-13.48,27.11h8.17v-27.11h-8.17v27.11h0Zm-64.19,31.41h188.78v-10.49h-188.78v10.49Z"/>
    <path class="cls-5" d="m637.93,155.33h26.97c1.47,0,2.66,1.3,2.66,2.91v32.92c0,1.6-1.19,2.91-2.66,2.91h-26.97c-1.47,0-2.66-1.3-2.66-2.91v-32.92c0-1.6,1.19-2.91,2.66-2.91h0Zm-11.93-11.63v59.66h92.08v-94.23s-92.08,34.57-92.08,34.57h0Zm53.18,11.63h26.97c1.47,0,2.66,1.3,2.66,2.91v32.92c0,1.6-1.19,2.91-2.66,2.91h-26.97c-1.47,0-2.66-1.3-2.66-2.91v-32.92c0-1.6,1.19-2.91,2.66-2.91Z"/>
    <rect class="cls-8" x="741.36" y="165.37" width="17.07" height="37.98"/>
    <rect class="cls-8" x="763.74" y="165.37" width="17.07" height="37.98"/>
    <path class="cls-5" d="m738.71,159.56h44.76c1.47,0,2.66,1.3,2.66,2.91v40.89h12.66v-58.83h-75.4v58.83h12.66v-40.89c0-1.61,1.19-2.91,2.66-2.91Z"/>
    <rect class="cls-8" x="681.84" y="161.14" width="8.17" height="27.11"/>
    <rect class="cls-8" x="695.32" y="161.14" width="8.17" height="27.11"/>
    <rect class="cls-8" x="654.07" y="161.14" width="8.17" height="27.11"/>
    <rect class="cls-8" x="640.58" y="161.14" width="8.17" height="27.11"/>
    <path class="cls-3" d="m650.9,86.02h104.64V14.34s-104.64,0-104.64,0v71.68h0Zm96.81-7.86h-88.97c-1.47,0-2.66-1.3-2.66-2.91s1.19-2.91,2.66-2.91h88.97c1.47,0,2.66,1.3,2.66,2.91s-1.19,2.91-2.66,2.91h0Zm0-13.68h-88.97c-1.47,0-2.66-1.3-2.66-2.91s1.19-2.91,2.66-2.91h88.97c1.47,0,2.66,1.3,2.66,2.91s-1.19,2.91-2.66,2.91h0Zm-45.96-13.68h-43c-1.47,0-2.66-1.3-2.66-2.91v-22.79c0-1.6,1.19-2.91,2.66-2.91h43c1.47,0,2.66,1.3,2.66,2.91v22.79c0,1.61-1.19,2.91-2.66,2.91Z"/>
    <rect class="cls-10" x="661.39" y="28.02" width="37.69" height="16.98"/>
    <rect class="cls-1" x="638.24" y="14.34" width="7.34" height="71.68"/>
    <path class="cls-2" d="m760.85,14.34v71.68h5.49l19.49-12.13V26.47l-19.49-12.13h-5.49Zm9.83,53.63v-35.58c0-1.6,1.19-2.91,2.66-2.91s2.66,1.3,2.66,2.91v35.58c0,1.6-1.19,2.91-2.66,2.91s-2.66-1.3-2.66-2.91Z"/>
    <rect class="cls-7" x="617.64" y="209.17" width="188.78" height="10.49"/>
    <path class="cls-9" d="m21.08,211.94V76.72h30.88v103.4h15.44v-103.4h30.88v103.4h15.44v-103.4h30.88v135.22H21.08Z"/>
    <path class="cls-9" d="m218.75,76.72l15.44,15.91v119.31h-30.88v-31.82h-15.44v31.82h-30.88V76.72h61.77Zm-30.88,71.59h15.44v-39.77h-15.44v39.77Z"/>
    <path class="cls-9" d="m323.76,76.72v63.63l-15.44,15.91h15.44v55.68h-30.88v-39.77l-15.44,15.91v23.86h-30.88V76.72h77.21Zm-46.33,66.5l15.44-15.91v-18.77h-15.44v34.68Z"/>
    <path class="cls-9" d="m366.99,76.72v103.4h15.44v-103.4h30.88v135.22h-77.21V76.72h30.88Z"/>
    <path class="cls-9" d="m487.44,76.72l15.44,15.91v119.31h-30.88v-103.4h-15.44v103.4h-30.88V76.72h61.77Z"/>
    <path class="cls-9" d="m592.45,76.72v31.82h-46.33v71.59h15.44v-39.77h30.88v71.59h-77.21v-119.31l15.44-15.91h61.77Z"/>
  </g>
</svg>