<svg width="6117" height="1560" viewBox="0 0 6117 1560" fill="none" xmlns="http://www.w3.org/2000/svg">
<g clip-path="url(#clip0_162_376)">
<path d="M4208.99 1546.67C4138.19 1546.67 4080.82 1470.13 4080.82 1375.73V894.333C4017.36 884.133 3968.19 812 3968.19 724.6V524.267C3968.19 429.867 4025.56 353.333 4096.37 353.333H4471.88C4542.69 353.333 4600.05 429.867 4600.05 524.267V724.6C4600.05 812 4550.89 884.067 4487.43 894.333V1375.73C4487.43 1470.13 4430.06 1546.67 4359.26 1546.67H4209.04H4208.99Z" fill="black"/>
<path d="M4531.92 1546.67C4461.11 1546.67 4403.74 1470.13 4403.74 1375.73V524.333C4403.74 429.933 4461.11 353.4 4531.92 353.4H4682.13C4752.94 353.4 4810.3 429.933 4810.3 524.333V1375.73C4810.3 1470.13 4752.94 1546.67 4682.13 1546.67H4531.92Z" fill="black"/>
<path d="M4967.46 1546.67C4954.38 1546.67 4941.8 1544.07 4929.92 1539.2C4918.05 1544.07 4905.47 1546.67 4892.38 1546.67H4742.17C4671.36 1546.67 4613.99 1470.13 4613.99 1375.73V524.333C4613.99 429.933 4671.36 353.4 4742.17 353.4H4892.38C4905.47 353.4 4918.05 356 4929.92 360.867C4941.8 356 4954.38 353.4 4967.46 353.4H5117.68C5188.48 353.4 5245.85 429.933 5245.85 524.333V824.867C5245.85 842 5243.94 858.8 5240.27 874.867C5243.89 890.733 5245.85 907.6 5245.85 925V1375.73C5245.85 1470.13 5188.48 1546.67 5117.68 1546.67H4967.46Z" fill="black"/>
<path d="M5177.77 1546.67C5106.96 1546.67 5049.59 1470.13 5049.59 1375.73V524.333C5049.59 429.933 5106.96 353.4 5177.77 353.4H5553.28C5624.08 353.4 5681.45 429.933 5681.45 524.333V724.667C5681.45 793.867 5650.65 853.4 5606.37 880.333V1019.8C5650.65 1046.73 5681.45 1106.27 5681.45 1175.47V1375.8C5681.45 1470.2 5624.08 1546.73 5553.28 1546.73H5177.77V1546.67Z" fill="black"/>
<path d="M5725.99 1546.67C5655.18 1546.67 5597.81 1470.13 5597.81 1375.73V894.333C5534.36 884.133 5485.19 812 5485.19 724.6V524.267C5485.19 429.867 5542.56 353.333 5613.36 353.333H5988.88C6059.68 353.333 6117.05 429.867 6117.05 524.267V724.6C6117.05 812 6067.88 884.067 6004.43 894.333V1375.73C6004.43 1470.13 5947.06 1546.67 5876.25 1546.67H5726.04H5725.99Z" fill="black"/>
<path d="M4471.83 524.267V724.6H4359.21V1375.67H4208.99V724.6H4096.37V524.267H4471.88H4471.83Z" fill="white"/>
<path d="M4682.13 524.267V1375.67H4531.92V524.267H4682.13Z" fill="white"/>
<path d="M4892.38 524.267V842.8L4967.46 742.6V524.267H5117.68V824.8L5042.6 925H5117.68V1375.73H4967.46V1025.13L4892.38 1125.33V1375.73H4742.17V524.333H4892.38V524.267Z" fill="white"/>
<path d="M5327.93 724.6V874.867H5478.15V1075.2H5327.93V1175.4H5553.23V1375.73H5177.72V524.333H5553.23V724.667H5327.93V724.6Z" fill="white"/>
<path d="M5988.83 524.267V724.6H5876.2V1375.67H5725.99V724.6H5613.36V524.267H5988.88H5988.83Z" fill="white"/>
<path d="M106.082 1557.73C47.5052 1557.73 0 1492.93 0 1412.93V511.467C0 431.467 47.5052 366.667 106.082 366.667H261.48C275.218 366.667 288.302 370.2 300.33 376.667C312.357 370.2 325.491 366.667 339.179 366.667H494.577C508.316 366.667 521.4 370.2 533.427 376.667C545.454 370.2 558.589 366.667 572.277 366.667H727.675C786.251 366.667 833.757 431.467 833.757 511.467V1412.93C833.757 1492.93 786.251 1557.73 727.675 1557.73H106.082Z" fill="black"/>
<path d="M1023.07 1557.73C1009.33 1557.73 996.251 1554.2 984.223 1547.73C972.196 1554.2 959.062 1557.73 945.374 1557.73H789.975C731.399 1557.73 683.894 1492.93 683.894 1412.93V511.467C683.894 431.467 731.399 366.667 789.975 366.667H1100.82C1128.95 366.667 1155.93 381.933 1175.85 409.067L1253.55 515.133C1273.43 542.266 1284.6 579.133 1284.6 617.533V1412.93C1284.6 1492.93 1237.1 1557.73 1178.52 1557.73H1023.12H1023.07Z" fill="black"/>
<path d="M1473.82 1557.73C1460.08 1557.73 1447 1554.2 1434.97 1547.73C1422.94 1554.2 1409.81 1557.73 1396.12 1557.73H1240.72C1182.14 1557.73 1134.64 1492.93 1134.64 1412.93V511.467C1134.64 431.467 1182.14 366.667 1240.72 366.667H1629.27C1687.84 366.667 1735.35 431.467 1735.35 511.467V935.667C1735.35 954 1732.83 971.933 1728 988.667C1732.73 1005.07 1735.35 1023 1735.35 1041.73V1412.93C1735.35 1492.93 1687.84 1557.73 1629.27 1557.73H1473.87H1473.82Z" fill="black"/>
<path d="M1691.42 1557.73C1632.84 1557.73 1585.34 1492.93 1585.34 1412.93V511.467C1585.34 431.467 1632.84 366.667 1691.42 366.667H1846.82C1860.55 366.667 1873.64 370.2 1885.66 376.667C1897.69 370.2 1910.83 366.667 1924.51 366.667H2079.91C2138.49 366.667 2185.99 431.467 2185.99 511.467V1412.93C2185.99 1492.93 2138.49 1557.73 2079.91 1557.73H1691.37H1691.42Z" fill="black"/>
<path d="M2375.26 1557.73C2361.52 1557.73 2348.44 1554.2 2336.41 1547.73C2324.38 1554.2 2311.25 1557.73 2297.56 1557.73H2142.16C2083.59 1557.73 2036.08 1492.93 2036.08 1412.93V511.467C2036.08 431.467 2083.59 366.667 2142.16 366.667H2453.01C2481.14 366.667 2508.11 381.933 2528.04 409.067L2605.74 515.133C2625.62 542.266 2636.79 579.133 2636.79 617.533V1412.93C2636.79 1492.93 2589.29 1557.73 2530.71 1557.73H2375.31H2375.26Z" fill="black"/>
<path d="M2592.86 1557.73C2534.28 1557.73 2486.78 1492.93 2486.78 1412.93V617.533C2486.78 579.133 2497.95 542.267 2517.83 515.133L2595.53 409.067C2615.4 381.933 2642.43 366.667 2670.56 366.667L4098.98 353.333C4157.56 353.333 4018.47 420 4053.69 471.467V683.6C3870.16 762.867 4409.43 865.867 4078.86 893.333C4323.63 761.533 4044.79 827.2 4119.11 1015.67V1492.93C3093.42 1468.07 4327.96 1465.27 4249.95 1546.67L2592.81 1557.73H2592.86Z" fill="black"/>
<path fill-rule="evenodd" clip-rule="evenodd" d="M3084.27 1300.4V944.133C3084.27 911.6 3098.56 882.6 3119.79 872L3319.93 772.467V669.133H3198.45C3169.41 669.133 3145.86 635 3145.86 592.867V76.2667C3145.86 34.2 3169.41 0 3198.45 0H3860.05C3869.16 0 3878.12 3.46667 3886.07 10L3993.96 99C4010.42 112.533 4020.53 137.867 4020.53 165.267V503.933C4020.53 531.333 4010.37 556.667 3993.96 570.2L3886.07 659.2C3878.12 665.733 3869.16 669.2 3860.05 669.2H3846.46V868H4033.11C4062.15 868 4085.7 902.133 4085.7 944.267V1301.8C4107.89 1310.73 4124.15 1340.27 4124.15 1375.27V1483.93C4124.15 1526 4100.6 1560.2 4071.56 1560.2H3094.78C3065.75 1560.2 3042.2 1526.07 3042.2 1483.93V1375.27C3042.2 1338.4 3060.26 1307.67 3084.22 1300.6L3084.27 1300.4ZM3425.16 720.133L3527.76 669.067H3425.16V720.133ZM3674.96 669.067C3677.93 678.533 3679.59 689.067 3679.59 700.333V867.867H3741.29V669.067H3674.96ZM3574.41 984.8V807.067C3459.48 864.267 3344.49 921.4 3229.55 978.6H3346.05C3359.94 978.6 3372.57 986.4 3381.98 999.2C3391.39 986.4 3404.02 978.6 3417.91 978.6H3553.63C3561.03 978.6 3568.02 980.8 3574.41 984.8ZM3679.59 1020.33V1030.13C3682.01 1026.47 3684.67 1023.2 3687.59 1020.33H3679.59ZM3972.57 1020.33C3975.44 1023.2 3978.16 1026.53 3980.57 1030.2V1020.33H3972.57ZM3762.93 334.267V152.467H3582.97C3583.62 157.267 3583.98 162.267 3583.98 167.4V319.333C3583.98 324.467 3583.62 329.467 3582.97 334.267H3762.93ZM3770.02 1298.8H3777.47V1159.33H3770.02V1298.8ZM3882.64 1298.8H3890.09V1159.33H3882.64V1298.8Z" fill="white"/>
<path fill-rule="evenodd" clip-rule="evenodd" d="M3123.52 1355.73V944.133C3123.52 935.867 3127.14 928.467 3132.53 925.8L3359.18 813.067V612.267H3198.45C3191.05 612.267 3185.06 603.6 3185.06 592.867V76.2667C3185.06 65.6 3191.05 56.8667 3198.45 56.8667H3860.05C3862.36 56.8667 3864.63 57.7334 3866.64 59.4L3974.54 148.4C3978.71 151.867 3981.28 158.267 3981.28 165.267V503.933C3981.28 510.867 3978.71 517.333 3974.54 520.8L3866.64 609.8C3864.63 611.467 3862.36 612.333 3860.05 612.333H3807.21V924.867H4033.11C4040.51 924.867 4046.5 933.533 4046.5 944.267V1355.87H4071.61C4079.01 1355.87 4084.99 1364.53 4084.99 1375.27V1483.93C4084.99 1494.67 4079.01 1503.33 4071.61 1503.33H3094.83C3087.44 1503.33 3081.45 1494.67 3081.45 1483.93V1375.27C3081.45 1364.6 3087.44 1355.87 3094.83 1355.87H3123.52V1355.73ZM3385.95 799.8L3622.67 682.067C3631.33 677.733 3640.39 687.133 3640.39 700.4V924.8H3780.54V612.267H3385.95V799.8ZM3150.29 958V1355.73H3613.67V727.533C3459.22 804.333 3304.73 881.2 3150.29 958ZM3640.39 963.533V1355.73H3704.1V1083.13C3704.1 1072.4 3710.09 1063.73 3717.48 1063.73H3942.73C3950.13 1063.73 3956.12 1072.4 3956.12 1083.13V1355.73H4019.83V963.533H3640.39ZM3275.54 573.533H3802.13V95.6H3275.54V573.467V573.533ZM3531.39 338.8C3538.79 338.8 3544.77 330.133 3544.77 319.4V167.467C3544.77 156.8 3538.79 148.067 3531.39 148.067H3315C3307.6 148.067 3301.61 156.733 3301.61 167.467V319.4C3301.61 330.067 3307.6 338.8 3315 338.8H3531.39ZM3328.33 300.067H3518V186.867H3328.33V300.067ZM3762.67 430C3770.07 430 3776.06 421.333 3776.06 410.6C3776.06 399.867 3770.07 391.2 3762.67 391.2H3314.95C3307.55 391.2 3301.56 399.867 3301.56 410.6C3301.56 421.333 3307.55 430 3314.95 430H3762.67ZM3762.67 521.2C3770.07 521.2 3776.06 512.533 3776.06 501.8C3776.06 491.067 3770.07 482.4 3762.67 482.4H3314.95C3307.55 482.4 3301.56 491.067 3301.56 501.8C3301.56 512.533 3307.55 521.2 3314.95 521.2H3762.67ZM3891.7 472.667C3899.1 472.667 3905.09 464 3905.09 453.267V216.067C3905.09 205.4 3899.1 196.667 3891.7 196.667C3884.31 196.667 3878.32 205.333 3878.32 216.067V453.267C3878.32 463.933 3884.31 472.667 3891.7 472.667ZM3856.48 573.6L3954.56 492.733V176.467L3856.48 95.6H3828.85V573.467H3856.48V573.6ZM3211.78 573.6H3248.72V95.6H3211.78V573.467V573.6ZM3730.72 1355.8H3816.62V1102.6H3730.72V1355.8ZM3843.34 1355.8H3929.24V1102.6H3843.34V1355.8ZM3278.06 1293.8H3345.95C3353.34 1293.8 3359.33 1285.13 3359.33 1274.4V1054.93C3359.33 1044.27 3353.34 1035.53 3345.95 1035.53H3210.22C3202.83 1035.53 3196.84 1044.2 3196.84 1054.93V1274.4C3196.84 1285.07 3202.83 1293.8 3210.22 1293.8H3278.11H3278.06ZM3291.45 1074.33V1255.07H3332.56V1074.33H3291.45ZM3223.56 1255.07H3264.67V1074.33H3223.56V1255.07ZM3485.64 1293.8H3553.53C3560.93 1293.8 3566.92 1285.13 3566.92 1274.4V1054.93C3566.92 1044.27 3560.93 1035.53 3553.53 1035.53H3417.81C3410.41 1035.53 3404.42 1044.2 3404.42 1054.93V1274.4C3404.42 1285.07 3410.41 1293.8 3417.81 1293.8H3485.69H3485.64ZM3499.03 1074.33V1255.07H3540.14V1074.33H3499.03ZM3431.19 1255.07H3472.31V1074.33H3431.19V1255.07ZM3108.17 1464.47H4058.17V1394.53H3108.17V1464.47Z" fill="#333333"/>
<path fill-rule="evenodd" clip-rule="evenodd" d="M3210.27 1035.53H3346C3353.39 1035.53 3359.38 1044.2 3359.38 1054.93V1274.4C3359.38 1285.07 3353.39 1293.8 3346 1293.8H3210.27C3202.88 1293.8 3196.89 1285.13 3196.89 1274.4V1054.93C3196.89 1044.27 3202.88 1035.53 3210.27 1035.53ZM3150.24 958V1355.73H3613.62V727.533L3150.24 958ZM3417.86 1035.53H3553.58C3560.98 1035.53 3566.97 1044.2 3566.97 1054.93V1274.4C3566.97 1285.07 3560.98 1293.8 3553.58 1293.8H3417.86C3410.46 1293.8 3404.47 1285.13 3404.47 1274.4V1054.93C3404.47 1044.27 3410.46 1035.53 3417.86 1035.53Z" fill="#CCCCCC"/>
<path d="M3816.67 1102.47H3730.77V1355.67H3816.67V1102.47Z" fill="#1AA1FF"/>
<path d="M3929.29 1102.47H3843.39V1355.67H3929.29V1102.47Z" fill="#1AA1FF"/>
<path fill-rule="evenodd" clip-rule="evenodd" d="M3717.43 1063.73H3942.68C3950.08 1063.73 3956.07 1072.4 3956.07 1083.13V1355.73H4019.78V963.533H3640.34V1355.73H3704.05V1083.13C3704.05 1072.4 3710.04 1063.73 3717.43 1063.73Z" fill="#CCCCCC"/>
<path d="M3472.36 1074.27H3431.24V1255H3472.36V1074.27Z" fill="#1AA1FF"/>
<path d="M3540.19 1074.27H3499.08V1255H3540.19V1074.27Z" fill="#1AA1FF"/>
<path d="M3332.61 1074.27H3291.5V1255H3332.61V1074.27Z" fill="#1AA1FF"/>
<path d="M3264.72 1074.27H3223.61V1255H3264.72V1074.27Z" fill="#1AA1FF"/>
<path fill-rule="evenodd" clip-rule="evenodd" d="M3275.54 573.467H3802.13V95.6001H3275.54V573.467ZM3762.72 521.067H3315C3307.6 521.067 3301.61 512.4 3301.61 501.667C3301.61 490.933 3307.6 482.267 3315 482.267H3762.72C3770.12 482.267 3776.11 490.933 3776.11 501.667C3776.11 512.4 3770.12 521.067 3762.72 521.067ZM3762.72 429.867H3315C3307.6 429.867 3301.61 421.2 3301.61 410.467C3301.61 399.733 3307.6 391.067 3315 391.067H3762.72C3770.12 391.067 3776.11 399.733 3776.11 410.467C3776.11 421.2 3770.12 429.867 3762.72 429.867ZM3531.44 338.667H3315.05C3307.65 338.667 3301.66 330 3301.66 319.267V167.333C3301.66 156.667 3307.65 147.933 3315.05 147.933H3531.44C3538.84 147.933 3544.82 156.6 3544.82 167.333V319.267C3544.82 330 3538.84 338.667 3531.44 338.667Z" fill="#FFA721"/>
<path d="M3518 186.8H3328.33V300H3518V186.8Z" fill="#FF3131"/>
<path d="M3248.77 95.6001H3211.83V573.467H3248.77V95.6001Z" fill="#FF700D"/>
<path fill-rule="evenodd" clip-rule="evenodd" d="M3828.85 95.6001V573.467H3856.48L3954.56 492.6V176.467L3856.48 95.6001H3828.85ZM3878.32 453.133V215.933C3878.32 205.267 3884.31 196.533 3891.7 196.533C3899.1 196.533 3905.09 205.2 3905.09 215.933V453.133C3905.09 463.8 3899.1 472.533 3891.7 472.533C3884.31 472.533 3878.32 463.867 3878.32 453.133Z" fill="#FF700D"/>
<path d="M4058.17 1394.47H3108.17V1464.4H4058.17V1394.47Z" fill="#58535A"/>
<path d="M106.082 1412.93V511.467H261.48V1200.8H339.179V511.467H494.577V1200.8H572.277V511.467H727.675V1412.93H106.082Z" fill="white"/>
<path d="M1100.82 511.467L1178.52 617.533V1412.93H1023.12V1200.8H945.424V1412.93H790.026V511.467H1100.87H1100.82ZM945.424 988.733H1023.12V723.6H945.424V988.733Z" fill="white"/>
<path d="M1629.27 511.467V935.667L1551.57 1041.73H1629.27V1412.93H1473.87V1147.8L1396.17 1253.87V1412.93H1240.77V511.467H1629.32H1629.27ZM1396.12 954.8L1473.82 848.733V723.6H1396.12V954.8Z" fill="white"/>
<path d="M1846.82 511.467V1200.8H1924.51V511.467H2079.91V1412.93H1691.37V511.467H1846.76H1846.82Z" fill="white"/>
<path d="M2452.96 511.467L2530.66 617.533V1412.93H2375.26V723.6H2297.56V1412.93H2142.16V511.467H2453.01H2452.96Z" fill="white"/>
<path d="M2981.4 511.467V723.6H2748.26V1200.87H2825.96V935.733H2981.35V1413H2592.81V617.6L2670.51 511.533H2981.35L2981.4 511.467Z" fill="white"/>
</g>
<defs>
<clipPath id="clip0_162_376">
<rect width="6117" height="1560" fill="white"/>
</clipPath>
</defs>
</svg>
